<svg xmlns="http://www.w3.org/2000/svg" viewBox="0 0 100 100">
  <!-- Rounded background -->
  <rect width="100" height="100" rx="20" fill="#F8C8DC"/>
  <!-- BookOpen Icon (Approximate Lucide paths) -->
  <path d="M15 25h30c2.8 0 5 2.2 5 5v50c0 2.8-2.2 5-5 5H15c-2.8 0-5-2.2-5-5V30c0-2.8 2.2-5 5-5z" fill="none" stroke="#B76E79" stroke-width="6" stroke-linecap="round" stroke-linejoin="round"/>
  <path d="M85 25H55c-2.8 0-5 2.2-5 5v50c0 2.8 2.2 5 5 5h30c2.8 0 5-2.2 5-5V30c0-2.8-2.2-5-5-5z" fill="none" stroke="#B76E79" stroke-width="6" stroke-linecap="round" stroke-linejoin="round"/>
  <path d="M50 30v50" fill="none" stroke="#B76E79" stroke-width="6" stroke-linecap="round" stroke-linejoin="round"/>
</svg>
